hpl_overground_slow_walk_RRA_states
nRows=7
nColumns=47

# SIMM Motion File Header:
name hpl_overground_slow_walk_RRA_states
datacolumns 47
datarows 7
otherdata 1
range 0.41000000000000003000 0.41000063000000003000
endheader
time	pelvis_tx	pelvis_ty	pelvis_tz	pelvis_tilt	pelvis_list	pelvis_rotation	hip_flexion_r	hip_adduction_r	hip_rotation_r	knee_angle_r	ankle_angle_r	subtalar_angle_r	mtp_angle_r	hip_flexion_l	hip_adduction_l	hip_rotation_l	knee_angle_l	ankle_angle_l	subtalar_angle_l	mtp_angle_l	lumbar_extension	lumbar_bending	lumbar_rotation	pelvis_tx_u	pelvis_ty_u	pelvis_tz_u	pelvis_tilt_u	pelvis_list_u	pelvis_rotation_u	hip_flexion_r_u	hip_adduction_r_u	hip_rotation_r_u	knee_angle_r_u	ankle_angle_r_u	subtalar_angle_r_u	mtp_angle_r_u	hip_flexion_l_u	hip_adduction_l_u	hip_rotation_l_u	knee_angle_l_u	ankle_angle_l_u	subtalar_angle_l_u	mtp_angle_l_u	lumbar_extension_u	lumbar_bending_u	lumbar_rotation_u
      0.41000000000000003000	     -1.28203378300973150000	      0.98341949290446007000	     -0.19134834514773288000	     14.14713102567996300000	     -3.37737314447614610000	     -8.63558307793012150000	    -40.60271255836691800000	     -3.09920369266297960000	      7.47431081847047540000	     -5.59882588490951690000	     -1.25527603317193550000	      0.00000000000000000000	      0.00000000000000000000	      7.12237237476313640000	     -7.06556820535201440000	     -2.51908251536214590000	      5.63814203326081650000	      0.74471485347916444000	      0.00000000000000000000	      0.00000000000000000000	    -25.19998521331153500000	     -0.02547932070111973100	     12.18296518120480700000	      2.05879745236136370000	     -0.19793275513223210000	     -0.13388640096729451000	     -2.18148447215871540000	     57.12452040131029200000	    -14.35923141639465200000	      5.23545502324618720000	    -73.75405588471710400000	    -51.57483270771492600000	   -187.70574072022612000000	   -165.53352650077829000000	      0.00000000000000000000	      0.00000000000000000000	     91.43932984424350300000	     78.19200760936837500000	    -45.57597665990639500000	   -251.45893888571661000000	    -90.03587367481286200000	      0.00000000000000000000	      0.00000000000000000000	     27.70761040351121500000	    -79.88520996660517400000	      4.36237263589757160000
      0.41000001000000003000	     -1.28203376242175700000	      0.98341949092513214000	     -0.19134834648659699000	     14.14713100386515900000	     -3.37737257323086700000	     -8.63558322152240270000	    -40.60271250601228800000	     -3.09920443020358500000	      7.47431030272207940000	     -5.59882776196710360000	     -1.25527768850738290000	      0.00000000000000000000	     -0.00000000000000000000	      7.12237328915644690000	     -7.06556742343183860000	     -2.51908297112191400000	      5.63813951867121420000	      0.74471395311962851000	     -0.00000000000000000000	     -0.00000000000000000000	    -25.19998493623545600000	     -0.02548011955328888900	     12.18296522482847500000	      2.05879745058363330000	     -0.19793282204541576000	     -0.13388641704039397000	     -2.18147631344572800000	     57.12453538204972100000	    -14.35922491628974000000	      5.23547034805046610000	    -73.75406526009926700000	    -51.57484644025785100000	   -187.70577662274914000000	   -165.53356298473989000000	     -0.00000000000000000000	     -0.00000000000000000002	     91.43933232969831700000	     78.19202754277060300000	    -45.57597695459812600000	   -251.45898163978018000000	    -90.03603351745421400000	     -0.00000000000000000013	      0.00000000000000000010	     27.70760540201213500000	    -79.88522386551024100000	      4.36236077437237760000
      0.41000003000000002000	     -1.28203372124580820000	      0.98341948696647441000	     -0.19134834916432564000	     14.14713096023579400000	     -3.37737143073985990000	     -8.63558350870676960000	    -40.60271240130258300000	     -3.09920590528507800000	      7.47430927122487530000	     -5.59883151608335440000	     -1.25528099917937210000	     -0.00000000000000000000	     -0.00000000000000000000	      7.12237511794314320000	     -7.06556585959088950000	     -2.51908388264145880000	      5.63813448949072620000	      0.74471215239576127000	     -0.00000000000000000000	      0.00000000000000000000	    -25.19998438208344600000	     -0.02548171725804417700	     12.18296531207545500000	      2.05879744702822840000	     -0.19793295587194673000	     -0.13388644918667908000	     -2.18145999608055650000	     57.12456534347455800000	    -14.35921191604309800000	      5.23550099770691890000	    -73.75408401078962600000	    -51.57487390533552900000	   -187.70584842778800000000	   -165.53363595267874000000	     -0.00000000000000000003	     -0.00000000000000000001	     91.43933730072865300000	     78.19206740954649600000	    -45.57597754397856000000	   -251.45906714804244000000	    -90.03635319804745100000	     -0.00000000000000000024	      0.00000000000000000152	     27.70759539907395200000	    -79.88525166323576300000	      4.36233705131444790000
      0.41000006999999999000	     -1.28203363889391040000	      0.98341947904915084000	     -0.19134835451978488000	     14.14713087297804800000	     -3.37736914575604800000	     -8.63558408307472720000	    -40.60271219188131700000	     -3.09920885544918830000	      7.47430720822881960000	     -5.59883902432016360000	     -1.25528762052772900000	      0.00000000000000000000	     -0.00000000000000000000	      7.12237877551683420000	     -7.06556273190659830000	     -2.51908570568058420000	      5.63812443112462080000	      0.74470855092884647000	      0.00000000000000000000	      0.00000000000000000000	    -25.19998327378003100000	     -0.02548491266922261300	     12.18296548656798700000	      2.05879743991764120000	     -0.19793322352566323000	     -0.13388651347959410000	     -2.18142736159343050000	     57.12462526610815400000	    -14.35918591540254100000	      5.23556229721140020000	    -73.75412151187433100000	    -51.57492883545821600000	   -187.70599203783706000000	   -165.53378188861933000000	      0.00000000000000000005	      0.00000000000000000005	     91.43934724327223800000	     78.19214714298409800000	    -45.57597872272730700000	   -251.45923816510731000000	    -90.03699254047622000000	      0.00000000000000000139	     -0.00000000000000000157	     27.70757539343748400000	    -79.88530725834832000000	      4.36228960516841640000
      0.41000015000000001000	     -1.28203347419011580000	      0.98341946321447149000	     -0.19134836523071111000	     14.14713069846647100000	     -3.37736457578123290000	     -8.63558523180751970000	    -40.60271177303143000000	     -3.09921475578190940000	      7.47430308223011860000	     -5.59885404081101520000	     -1.25530086324195490000	      0.00000000000000000000	      0.00000000000000000000	      7.12238609066540820000	     -7.06555647652844860000	     -2.51908935175897670000	      5.63810431437188610000	      0.74470134791829812000	      0.00000000000000000000	     -0.00000000000000000000	    -25.19998105717560200000	     -0.02549130349825085000	     12.18296583554735900000	      2.05879742569735710000	     -0.19793375883571446000	     -0.13388664206680337000	     -2.18136209359203240000	     57.12474511051107800000	    -14.35913391353234100000	      5.23568489698666450000	    -73.75419651285980600000	    -51.57503869557290000000	   -187.70627925782065000000	   -165.53407376075188000000	     -0.00000000000000000003	      0.00000000000000000026	     91.43936713029094700000	     78.19230660940257800000	    -45.57598108017636200000	   -251.45958020139858000000	    -90.03827115030370000000	      0.00000000000000000154	     -0.00000000000000000277	     27.70753538312414900000	    -79.88541844721955000000	      4.36219471275567110000
      0.41000031000000003000	     -1.28203314478252990000	      0.98341943154498446000	     -0.19134838665259440000	     14.14713034945897800000	     -3.37735543580284060000	     -8.63558752926062570000	    -40.60271093530223400000	     -3.09922655646535140000	      7.47429483020635030000	     -5.59888407386165190000	     -1.25532734874045620000	     -0.00000000000000000000	      0.00000000000000000000	      7.12240072096733190000	     -7.06554396573387590000	     -2.51909664391632630000	      5.63806408078432760000	      0.74468694159035520000	      0.00000000000000000000	     -0.00000000000000000000	    -25.19997662397634000000	     -0.02550408518299229400	     12.18296653348333100000	      2.05879739726035150000	     -0.19793482946628965000	     -0.13388689924673877000	     -2.18123156148056020000	     57.12498479585988100000	    -14.35902990743563400000	      5.23593009960231550000	    -73.75434651009520300000	    -51.57525841527950700000	   -187.70685369732962000000	   -165.53465750602254000000	     -0.00000000000000000016	     -0.00000000000000000034	     91.43940691205428100000	     78.19262554041267800000	    -45.57598579488090000000	   -251.46026428262695000000	    -90.04082806984382600000	      0.00000000000000000188	     -0.00000000000000000545	     27.70745536633576500000	    -79.88564081954658000000	      4.36200492744744130000
      0.41000063000000003000	     -1.28203248596737200000	      0.98341936820549647000	     -0.19134842949648445000	     14.14712965150664700000	     -3.37733715573100830000	     -8.63559212411691310000	    -40.60270925972613300000	     -3.09925015790423150000	      7.47427832605334700000	     -5.59894414023865570000	     -1.25538032001765720000	     -0.00000000000000000000	     -0.00000000000000000000	      7.12242998159027700000	     -7.06551894399164660000	     -2.51911122823328970000	      5.63798361328084590000	      0.74465812770730766000	      0.00000000000000000000	     -0.00000000000000000000	    -25.19996775761622800000	     -0.02552964865921102800	     12.18296792926417600000	      2.05879734040058840000	     -0.19793697076932876000	     -0.13388741362867615000	     -2.18097051282215220000	     57.12546415273013200000	    -14.35882188581737800000	      5.23642051709345590000	    -73.75464648562466200000	    -51.57569785260199800000	   -187.70800257451472000000	   -165.53582500058624000000	      0.00000000000000000005	     -0.00000000000000000052	     91.43948650648317800000	     78.19326339512601000000	    -45.57599522351711800000	   -251.46163247966481000000	    -90.04594070850787100000	      0.00000000000000000683	     -0.00000000000000001553	     27.70729534811139400000	    -79.88608554254005900000	      4.36162535490001700000
